<svg xmlns="http://www.w3.org/2000/svg" viewBox="0 0 640 640"><path d="M439.8 358.7C436.5 358.3 433.1 357.9 429.8 357.4 433.2 357.8 436.5 358.3 439.8 358.7zM320 291.1c-26.1-50.7-97.1-145.2-163.1-191.8-63.3-44.7-87.4-37-103.3-29.8C35.3 77.8 32 105.9 32 122.4S41.1 258 47 277.9C66.5 343.6 136.1 365.8 200.2 358.6 203.5 358.1 206.8 357.7 210.2 357.2 206.9 357.7 203.6 358.2 200.2 358.6c-93.9 14-177.3 48.2-67.9 169.9C252.6 653.1 297.1 501.8 320 425.1c22.9 76.7 49.2 222.5 185.6 103.4 102.4-103.4 28.1-156-65.8-169.9C436.5 358.2 433.1 357.8 429.8 357.3 433.2 357.7 436.5 358.2 439.8 358.6 503.9 365.7 573.4 343.5 593 277.9 598.9 258 608 139 608 122.4 608 105.8 604.7 77.7 586.4 69.5c-15.8-7.1-40-14.9-103.2 29.8C417.1 145.9 346.1 240.4 320 291.1z"/></svg>